<svg width="24" height="24" viewBox="0 0 24 24" fill="none" xmlns="http://www.w3.org/2000/svg">
<g clip-path="url(#clip0_104_526)">
<path d="M22.9997 3.70002H6.01167L5.64808 1.75838C5.55625 1.26809 5.14491 0.914307 4.66666 0.914307H0.5C0.223875 0.914307 0 1.14817 0 1.43663V2.48127C0 2.76972 0.223875 3.00359 0.5 3.00359H3.84334L6.74309 18.4861C6.28317 18.9867 6 19.6657 6 20.4143C6 21.9528 7.19392 23.2 8.66666 23.2C10.1394 23.2 11.3333 21.9528 11.3333 20.4143C11.3339 19.9252 11.2105 19.4447 10.9757 19.0215H17.0243C16.7896 19.4447 16.6662 19.9252 16.6667 20.4143C16.6667 21.9528 17.8606 23.2 19.3334 23.2C20.8062 23.2 22 21.9528 22 20.4143C22 19.6249 21.6853 18.9128 21.1802 18.4059L21.2233 18.1988C21.3589 17.5476 20.8841 16.9322 20.2462 16.9322H8.49L8.09874 14.8428H21.1157C21.5861 14.8428 21.9929 14.5004 22.0928 14.0201L23.9768 4.96656C24.1122 4.31545 23.6375 3.70002 22.9997 3.70002ZM8.66666 21.4589C8.11525 21.4589 7.66666 20.9904 7.66666 20.4143C7.66666 19.8383 8.11525 19.3697 8.66666 19.3697C9.21808 19.3697 9.66666 19.8383 9.66666 20.4143C9.66666 20.9904 9.21808 21.4589 8.66666 21.4589ZM19.3334 21.4589C18.7819 21.4589 18.3334 20.9904 18.3334 20.4143C18.3334 19.8383 18.7819 19.3697 19.3334 19.3697C19.8848 19.3697 20.3334 19.8383 20.3334 20.4143C20.3334 20.9904 19.8848 21.4589 19.3334 21.4589ZM20.3099 12.7536H7.7075L6.40291 5.7893H21.7591L20.3099 12.7536Z" fill="#0A609B"/>
</g>
<defs>
<clipPath id="clip0_104_526">
<rect width="24" height="24" fill="white"/>
</clipPath>
</defs>
</svg>
