<svg width="151" height="24" viewBox="0 0 151 24" fill="none" xmlns="http://www.w3.org/2000/svg">
<rect x="115.868" y="0.25" width="34.5" height="23.5" rx="2.75" fill="white" stroke="#BDBABA" stroke-width="0.5"/>
<path d="M137.937 12.2873C138.45 12.2985 138.967 12.2647 139.479 12.3049C139.997 12.4016 140.122 13.186 139.661 13.4428C139.347 13.6121 138.974 13.5059 138.634 13.5357H137.937V12.2873V12.2873ZM139.776 10.8743C139.89 11.2771 139.501 11.6388 139.113 11.5834H137.937C137.945 11.2035 137.92 10.7911 137.949 10.4313C138.42 10.4445 138.896 10.4042 139.364 10.4524C139.566 10.503 139.734 10.6685 139.776 10.8743V10.8743ZM142.607 4.90048C142.629 5.66978 142.611 6.47974 142.617 7.26465C142.615 10.4558 142.62 13.6469 142.614 16.8382C142.594 18.0341 141.534 19.0733 140.346 19.0972C139.157 19.102 137.968 19.0979 136.779 19.0993V14.2749C138.075 14.2682 139.371 14.2885 140.666 14.2648C141.267 14.2271 141.925 13.8307 141.953 13.1696C142.023 12.5057 141.397 12.0465 140.803 11.974C140.575 11.968 140.581 11.9074 140.803 11.8809C141.37 11.7584 141.815 11.1717 141.648 10.5842C141.506 9.96624 140.823 9.72707 140.255 9.72825C139.097 9.72039 137.938 9.72715 136.78 9.72487C136.787 8.82422 136.764 7.92261 136.792 7.02262C136.884 5.84825 137.97 4.87978 139.141 4.90079C140.297 4.90061 141.452 4.90061 142.607 4.90057V4.90048Z" fill="url(#paint0_linear_0_1)"/>
<path d="M123.689 7.14423C123.719 5.95016 124.783 4.91949 125.969 4.90204C127.154 4.89839 128.338 4.90151 129.523 4.90045C129.519 8.89554 129.529 12.8911 129.518 16.8859C129.472 18.0655 128.419 19.0765 127.246 19.0974C126.059 19.1017 124.873 19.098 123.686 19.0992V14.1122C124.839 14.3845 126.047 14.5004 127.223 14.3198C127.926 14.2067 128.695 13.8615 128.933 13.1323C129.108 12.5085 129.01 11.852 129.036 11.2117V9.72484H127.001C126.992 10.7082 127.02 11.6933 126.986 12.6755C126.931 13.2792 126.333 13.6628 125.764 13.6423C125.058 13.6498 123.659 13.1305 123.659 13.1305C123.655 11.2881 123.679 8.98073 123.689 7.1444V7.14423Z" fill="url(#paint1_linear_0_1)"/>
<path d="M130.282 10.3246C130.174 10.3473 130.26 9.95972 130.233 9.81268C130.24 8.88298 130.217 7.95227 130.245 7.02322C130.337 5.84388 131.432 4.87299 132.607 4.9006H136.07C136.066 8.89568 136.076 12.8912 136.065 16.8861C136.019 18.0656 134.966 19.0766 133.793 19.0975C132.606 19.102 131.419 19.0982 130.233 19.0994V13.6355C131.043 14.3005 132.145 14.404 133.155 14.4058C133.916 14.4055 134.673 14.2882 135.412 14.1126V13.1116C134.579 13.5268 133.599 13.7906 132.676 13.552C132.032 13.3917 131.564 12.7691 131.574 12.1042C131.5 11.4128 131.905 10.6828 132.584 10.4773C133.428 10.2132 134.347 10.4152 135.138 10.7585C135.308 10.8472 135.48 10.9573 135.412 10.6741V9.88728C134.089 9.57263 132.682 9.45685 131.353 9.79914C130.969 9.90763 130.594 10.0722 130.282 10.3247V10.3246Z" fill="url(#paint2_linear_0_1)"/>
<rect x="39.09" y="0.248982" width="34.3595" height="23.4043" rx="2.7388" fill="white" stroke="#BDBABA" stroke-width="0.497963"/>
<path fill-rule="evenodd" clip-rule="evenodd" d="M56.5187 17.087C55.332 18.1111 53.7927 18.7293 52.1105 18.7293C48.3572 18.7293 45.3146 15.6514 45.3146 11.8545C45.3146 8.0576 48.3572 4.97961 52.1105 4.97961C53.7927 4.97961 55.332 5.59784 56.5187 6.62193C57.7055 5.59784 59.2448 4.97961 60.9269 4.97961C64.6803 4.97961 67.7229 8.0576 67.7229 11.8545C67.7229 15.6514 64.6803 18.7293 60.9269 18.7293C59.2448 18.7293 57.7055 18.1111 56.5187 17.087Z" fill="#ED0006"/>
<path fill-rule="evenodd" clip-rule="evenodd" d="M56.5188 17.087C57.98 15.8261 58.9066 13.9497 58.9066 11.8545C58.9066 9.75923 57.98 7.8829 56.5188 6.62193C57.7055 5.59784 59.2449 4.97961 60.927 4.97961C64.6803 4.97961 67.723 8.0576 67.723 11.8545C67.723 15.6514 64.6803 18.7293 60.927 18.7293C59.2449 18.7293 57.7055 18.1111 56.5188 17.087Z" fill="#F9A000"/>
<path fill-rule="evenodd" clip-rule="evenodd" d="M56.5187 6.62195C57.9799 7.88293 58.9065 9.75924 58.9065 11.8545C58.9065 13.9497 57.9799 15.826 56.5187 17.087C55.0575 15.826 54.131 13.9497 54.131 11.8545C54.131 9.75924 55.0575 7.88293 56.5187 6.62195Z" fill="#FF5E00"/>
<rect x="77.9311" y="0.248982" width="34.3595" height="23.4043" rx="2.7388" fill="#1F72CD" stroke="#BDBABA" stroke-width="0.497963"/>
<path fill-rule="evenodd" clip-rule="evenodd" d="M83.9313 8.46539L80.6699 15.6826H84.5742L85.0582 14.5319H86.1646L86.6486 15.6826H90.9461V14.8043L91.329 15.6826H93.552L93.935 14.7858V15.6826H102.873L103.959 14.5618L104.977 15.6826L109.568 15.6919L106.296 12.0942L109.568 8.46539H105.048L103.99 9.56552L103.005 8.46539H93.2817L92.4468 10.3282L91.5923 8.46539H87.6962V9.31378L87.2628 8.46539H83.9313ZM97.2778 9.49025H102.41L103.98 11.1859L105.6 9.49025H107.17L104.785 12.0931L107.17 14.666H105.529L103.959 12.9507L102.331 14.666H97.2778V9.49025ZM98.5452 11.5079V10.5625V10.5616H101.748L103.145 12.0735L101.686 13.5937H98.5452V12.5616H101.345V11.5079H98.5452ZM84.6867 9.49025H86.5898L88.7531 14.3843V9.49025H90.8379L92.5087 12.9993L94.0486 9.49025H96.123V14.6691H94.8608L94.8505 10.611L93.0103 14.6691H91.8812L90.0307 10.611V14.6691H87.434L86.9418 13.5081H84.2822L83.7909 14.6681H82.3996L84.6867 9.49025ZM84.7363 12.4348L85.6125 10.3665L86.4877 12.4348H84.7363Z" fill="white"/>
<rect x="0.248982" y="0.248982" width="34.3595" height="23.4043" rx="2.7388" fill="white" stroke="#BDBABA" stroke-width="0.497963"/>
<path fill-rule="evenodd" clip-rule="evenodd" d="M10.582 16.192H8.47031L6.88681 10.1509C6.81165 9.87298 6.65206 9.6273 6.41731 9.51152C5.83148 9.22053 5.18593 8.98895 4.48169 8.87216V8.63957H7.88345C8.35294 8.63957 8.70506 8.98895 8.76374 9.39472L9.58536 13.7524L11.696 8.63957H13.749L10.582 16.192ZM14.9227 16.192H12.9284L14.5706 8.63957H16.5649L14.9227 16.192ZM19.1451 10.7318C19.2038 10.3251 19.5559 10.0925 19.9667 10.0925C20.6122 10.0341 21.3154 10.1509 21.9023 10.4409L22.2544 8.81477C21.6676 8.58219 21.022 8.46539 20.4362 8.46539C18.5006 8.46539 17.0921 9.51152 17.0921 10.9634C17.0921 12.0679 18.0897 12.6479 18.794 12.9973C19.5559 13.3456 19.8493 13.5782 19.7906 13.9266C19.7906 14.4492 19.2038 14.6818 18.6179 14.6818C17.9137 14.6818 17.2095 14.5076 16.5649 14.2166L16.2128 15.8437C16.917 16.1336 17.6789 16.2504 18.3832 16.2504C20.5536 16.3078 21.9023 15.2627 21.9023 13.694C21.9023 11.7186 19.1451 11.6028 19.1451 10.7318V10.7318ZM28.8819 16.192L27.2984 8.63957H25.5975C25.2454 8.63957 24.8933 8.87216 24.7759 9.22053L21.8436 16.192H23.8966L24.3064 15.0885H26.8289L27.0636 16.192H28.8819ZM25.8909 10.6734L26.4768 13.5198H24.8346L25.8909 10.6734Z" fill="#172B85"/>
<defs>
<linearGradient id="paint0_linear_0_1" x1="136.739" y1="11.6963" x2="142.58" y2="11.6963" gradientUnits="userSpaceOnUse">
<stop stop-color="#58B03A"/>
<stop offset="1" stop-color="#55B330"/>
</linearGradient>
<linearGradient id="paint1_linear_0_1" x1="123.562" y1="12.1358" x2="129.427" y2="12.1358" gradientUnits="userSpaceOnUse">
<stop stop-color="#0F6EB6"/>
<stop offset="1" stop-color="#006DBA"/>
</linearGradient>
<linearGradient id="paint2_linear_0_1" x1="130.224" y1="11.834" x2="136.069" y2="11.834" gradientUnits="userSpaceOnUse">
<stop stop-color="#DE0D3D"/>
<stop offset="1" stop-color="#E30138"/>
</linearGradient>
</defs>
</svg>
