<svg width="20" height="23" viewBox="0 0 20 23" fill="none" xmlns="http://www.w3.org/2000/svg">
<g clip-path="url(#clip0_43_1339)">
<path fill-rule="evenodd" clip-rule="evenodd" d="M16.5918 10.1679H17.6327C18.7819 10.1679 19.7143 11.0798 19.7143 12.2037V20.3465C19.7143 21.4704 18.7819 22.3822 17.6327 22.3822H2.36734C1.21811 22.3822 0.285706 21.4704 0.285706 20.3465V12.2037C0.285706 11.0798 1.21811 10.1679 2.36734 10.1679H3.40815V7.11439C3.40815 3.56038 6.36581 0.667969 10 0.667969C13.6342 0.667969 16.5918 3.56038 16.5918 7.11439V10.1679ZM6.30612 7.11439V10.1679H13.6939V7.11439C13.6939 5.43069 12.2857 3.48939 10 3.48939C7.71428 3.48939 6.30612 5.43069 6.30612 7.11439ZM10 18.3822C9.36734 18.3822 8.85714 17.906 8.85714 17.3156V14.8775C8.85714 14.287 9.36734 13.8108 10 13.8108C10.6327 13.8108 11.1429 14.287 11.1429 14.8775V17.3156C11.1429 17.906 10.6327 18.3822 10 18.3822Z" fill="white"/>
</g>
<defs>
<clipPath id="clip0_43_1339">
<rect width="20" height="22.8571" fill="white"/>
</clipPath>
</defs>
</svg>
