<svg width="79" height="20" viewBox="0 0 79 20" fill="none" xmlns="http://www.w3.org/2000/svg">
<g clip-path="url(#clip0_43_1140)">
<g clip-path="url(#clip1_43_1140)">
<path d="M29.9309 4.09033H25.7861C25.5024 4.09033 25.2612 4.29639 25.217 4.57639L23.5406 15.2049C23.5073 15.4146 23.6697 15.6037 23.8824 15.6037H25.8612C26.1448 15.6037 26.3861 15.3976 26.4303 15.117L26.8824 12.2503C26.9261 11.9697 27.1679 11.7637 27.4509 11.7637H28.763C31.4933 11.7637 33.0691 10.4425 33.4806 7.82427C33.6661 6.67882 33.4885 5.77882 32.9521 5.14851C32.363 4.45639 31.3182 4.09033 29.9309 4.09033ZM30.4091 7.97215C30.1824 9.45942 29.0461 9.45942 27.9473 9.45942H27.3218L27.7606 6.68185C27.7867 6.51397 27.9321 6.39033 28.1018 6.39033H28.3885C29.137 6.39033 29.843 6.39033 30.2079 6.817C30.4255 7.07154 30.4921 7.44973 30.4091 7.97215Z" fill="#253B80"/>
<path d="M42.3206 7.92422H40.3358C40.1667 7.92422 40.0206 8.04785 39.9945 8.21573L39.9067 8.77088L39.7679 8.56967C39.3382 7.94603 38.38 7.73755 37.4236 7.73755C35.2303 7.73755 33.357 9.39876 32.9921 11.7291C32.8024 12.8915 33.0721 14.003 33.7315 14.7782C34.3364 15.4909 35.2018 15.7879 36.2315 15.7879C37.9988 15.7879 38.9788 14.6515 38.9788 14.6515L38.8903 15.203C38.857 15.4139 39.0194 15.603 39.2309 15.603H41.0188C41.303 15.603 41.543 15.3969 41.5879 15.1163L42.6606 8.323C42.6945 8.11391 42.5327 7.92422 42.3206 7.92422ZM39.5539 11.7872C39.3624 12.9212 38.4624 13.6824 37.3145 13.6824C36.7382 13.6824 36.2776 13.4975 35.9818 13.1472C35.6885 12.7994 35.577 12.3042 35.6703 11.7527C35.8491 10.6285 36.7642 9.8424 37.8945 9.8424C38.4582 9.8424 38.9164 10.0297 39.2182 10.383C39.5206 10.74 39.6406 11.2382 39.5539 11.7872Z" fill="#253B80"/>
<path d="M52.8915 7.92426H50.897C50.7067 7.92426 50.5279 8.0188 50.42 8.17698L47.6691 12.2291L46.503 8.33516C46.4297 8.09153 46.2048 7.92426 45.9503 7.92426H43.9903C43.7521 7.92426 43.5867 8.15698 43.6624 8.38123L45.8594 14.8285L43.7939 17.7443C43.6315 17.974 43.7951 18.2897 44.0758 18.2897H46.0679C46.257 18.2897 46.4339 18.1976 46.5412 18.0424L53.1751 8.46668C53.3339 8.23759 53.1709 7.92426 52.8915 7.92426Z" fill="#253B80"/>
<path d="M59.4952 4.09033H55.3497C55.0667 4.09033 54.8255 4.29639 54.7812 4.57639L53.1049 15.2049C53.0715 15.4146 53.234 15.6037 53.4455 15.6037H55.5728C55.7703 15.6037 55.9394 15.4594 55.9703 15.2631L56.4461 12.2503C56.4897 11.9697 56.7315 11.7637 57.0146 11.7637H58.3261C61.057 11.7637 62.6321 10.4425 63.0443 7.82427C63.2303 6.67882 63.0515 5.77882 62.5152 5.14851C61.9267 4.45639 60.8825 4.09033 59.4952 4.09033ZM59.9734 7.97215C59.7473 9.45942 58.6109 9.45942 57.5115 9.45942H56.8867L57.3261 6.68185C57.3522 6.51397 57.4964 6.39033 57.6667 6.39033H57.9534C58.7012 6.39033 59.4079 6.39033 59.7728 6.817C59.9903 7.07154 60.0564 7.44973 59.9734 7.97215Z" fill="#179BD7"/>
<path d="M71.8842 7.92422H69.9006C69.7303 7.92422 69.5854 8.04785 69.56 8.21573L69.4721 8.77088L69.3327 8.56967C68.903 7.94603 67.9454 7.73755 66.9891 7.73755C64.7957 7.73755 62.923 9.39876 62.5582 11.7291C62.3691 12.8915 62.6376 14.003 63.297 14.7782C63.903 15.4909 64.7673 15.7879 65.797 15.7879C67.5642 15.7879 68.5442 14.6515 68.5442 14.6515L68.4557 15.203C68.4224 15.4139 68.5848 15.603 68.7976 15.603H70.5848C70.8679 15.603 71.1091 15.3969 71.1533 15.1163L72.2267 8.323C72.2594 8.11391 72.097 7.92422 71.8842 7.92422ZM69.1176 11.7872C68.9273 12.9212 68.0261 13.6824 66.8782 13.6824C66.303 13.6824 65.8412 13.4975 65.5454 13.1472C65.2521 12.7994 65.1418 12.3042 65.2339 11.7527C65.4139 10.6285 66.3279 9.8424 67.4582 9.8424C68.0218 9.8424 68.48 10.0297 68.7818 10.383C69.0854 10.74 69.2054 11.2382 69.1176 11.7872Z" fill="#179BD7"/>
<path d="M74.2242 4.38184L72.523 15.2049C72.4897 15.4146 72.6521 15.6037 72.8636 15.6037H74.5739C74.8582 15.6037 75.0994 15.3976 75.143 15.117L76.8206 4.48912C76.8539 4.27942 76.6915 4.08972 76.48 4.08972H74.5648C74.3958 4.09033 74.2503 4.21396 74.2242 4.38184Z" fill="#179BD7"/>
<path d="M6.32787 17.6691L6.64484 15.6558L5.93878 15.6394H2.56726L4.91029 0.78303C4.91756 0.738181 4.9412 0.696363 4.97575 0.666666C5.01029 0.636969 5.05453 0.620605 5.10059 0.620605H10.7854C12.6727 0.620605 13.9751 1.01333 14.6551 1.78848C14.9739 2.15212 15.177 2.53212 15.2751 2.9503C15.3782 3.38909 15.38 3.91333 15.2794 4.55273L15.2721 4.59939V5.00909L15.5909 5.1897C15.8594 5.33212 16.0727 5.49515 16.2364 5.68182C16.5091 5.99273 16.6854 6.38788 16.76 6.85636C16.837 7.33818 16.8115 7.91151 16.6854 8.56061C16.54 9.30727 16.3048 9.95758 15.9873 10.4897C15.6951 10.98 15.323 11.3867 14.8812 11.7018C14.4594 12.0012 13.9582 12.2285 13.3915 12.3739C12.8424 12.517 12.2164 12.5891 11.5297 12.5891H11.0873C10.7709 12.5891 10.4636 12.703 10.2224 12.9073C9.98059 13.1158 9.82059 13.4006 9.7715 13.7121L9.73817 13.8933L9.17817 17.4418L9.15272 17.5721C9.14605 17.6133 9.13453 17.6339 9.11756 17.6479C9.10241 17.6606 9.08059 17.6691 9.05938 17.6691H6.32787Z" fill="#253B80"/>
<path d="M15.8927 4.64667C15.8758 4.75515 15.8564 4.86606 15.8345 4.98C15.0848 8.82909 12.52 10.1588 9.24424 10.1588H7.57636C7.17575 10.1588 6.83818 10.4497 6.77575 10.8448L5.92181 16.2606L5.68 17.7958C5.63939 18.0552 5.83939 18.2891 6.10121 18.2891H9.05939C9.40969 18.2891 9.70727 18.0345 9.76242 17.6891L9.79151 17.5388L10.3485 14.0042L10.3842 13.8103C10.4388 13.4636 10.737 13.2091 11.0873 13.2091H11.5297C14.3958 13.2091 16.6394 12.0455 17.2951 8.67818C17.5691 7.27152 17.4273 6.09697 16.7024 5.27091C16.483 5.02182 16.2109 4.81515 15.8927 4.64667Z" fill="#179BD7"/>
<path d="M15.1085 4.33391C14.9939 4.30058 14.8758 4.27027 14.7545 4.243C14.6327 4.21633 14.5079 4.1927 14.3794 4.17209C13.9297 4.09936 13.437 4.06482 12.9091 4.06482H8.45333C8.34364 4.06482 8.23939 4.08967 8.14606 4.13452C7.94061 4.2333 7.78788 4.42785 7.75091 4.66603L6.80303 10.6697L6.77576 10.8448C6.83818 10.4497 7.17576 10.1588 7.57636 10.1588H9.24424C12.52 10.1588 15.0848 8.82846 15.8345 4.97997C15.857 4.86603 15.8758 4.75512 15.8927 4.64664C15.703 4.54603 15.4976 4.45997 15.2764 4.38664C15.2218 4.36846 15.1655 4.35088 15.1085 4.33391Z" fill="#222D65"/>
<path d="M7.75092 4.66606C7.78789 4.42788 7.94061 4.23333 8.14607 4.13515C8.24001 4.0903 8.34364 4.06545 8.45334 4.06545H12.9091C13.437 4.06545 13.9297 4.1 14.3794 4.17273C14.5079 4.19333 14.6327 4.21697 14.7546 4.24364C14.8758 4.27091 14.9939 4.30121 15.1085 4.33455C15.1655 4.35152 15.2218 4.36909 15.277 4.38667C15.4982 4.46 15.7036 4.54667 15.8933 4.64667C16.1164 3.22424 15.8915 2.25576 15.1224 1.37879C14.2746 0.413333 12.7442 0 10.7861 0H5.10122C4.70122 0 4.36001 0.290909 4.29819 0.686667L1.93031 15.6958C1.88364 15.9927 2.11273 16.2606 2.41213 16.2606H5.92182L6.80304 10.6697L7.75092 4.66606Z" fill="#253B80"/>
</g>
</g>
<defs>
<clipPath id="clip0_43_1140">
<rect width="79" height="20" fill="white"/>
</clipPath>
<clipPath id="clip1_43_1140">
<rect width="75.1515" height="20" fill="white" transform="translate(1.92426)"/>
</clipPath>
</defs>
</svg>
