<svg width="208" height="40" viewBox="0 0 208 40" fill="none" xmlns="http://www.w3.org/2000/svg">
<rect width="208" height="40" rx="8" fill="#FFC439"/>
<g clip-path="url(#clip0_43_1138)">
<g clip-path="url(#clip1_43_1138)">
<path d="M94.4309 14.0903H90.2861C90.0024 14.0903 89.7612 14.2964 89.717 14.5764L88.0406 25.2049C88.0073 25.4146 88.1697 25.6037 88.3824 25.6037H90.3612C90.6448 25.6037 90.8861 25.3976 90.9303 25.117L91.3824 22.2503C91.4261 21.9697 91.6679 21.7637 91.9509 21.7637H93.263C95.9933 21.7637 97.5691 20.4425 97.9806 17.8243C98.1661 16.6788 97.9885 15.7788 97.4521 15.1485C96.863 14.4564 95.8182 14.0903 94.4309 14.0903ZM94.9091 17.9722C94.6824 19.4594 93.5461 19.4594 92.4473 19.4594H91.8218L92.2606 16.6818C92.2867 16.514 92.4321 16.3903 92.6018 16.3903H92.8885C93.637 16.3903 94.343 16.3903 94.7079 16.817C94.9255 17.0715 94.9921 17.4497 94.9091 17.9722Z" fill="#253B80"/>
<path d="M106.821 17.9242H104.836C104.667 17.9242 104.521 18.0479 104.495 18.2157L104.407 18.7709L104.268 18.5697C103.838 17.946 102.88 17.7375 101.924 17.7375C99.7303 17.7375 97.857 19.3988 97.4921 21.7291C97.3024 22.8915 97.5721 24.003 98.2315 24.7782C98.8364 25.4909 99.7018 25.7879 100.732 25.7879C102.499 25.7879 103.479 24.6515 103.479 24.6515L103.39 25.203C103.357 25.4139 103.519 25.603 103.731 25.603H105.519C105.803 25.603 106.043 25.3969 106.088 25.1163L107.161 18.323C107.195 18.1139 107.033 17.9242 106.821 17.9242ZM104.054 21.7872C103.862 22.9212 102.962 23.6824 101.815 23.6824C101.238 23.6824 100.778 23.4975 100.482 23.1472C100.188 22.7994 100.077 22.3042 100.17 21.7527C100.349 20.6285 101.264 19.8424 102.395 19.8424C102.958 19.8424 103.416 20.0297 103.718 20.383C104.021 20.74 104.141 21.2382 104.054 21.7872Z" fill="#253B80"/>
<path d="M117.392 17.9243H115.397C115.207 17.9243 115.028 18.0188 114.92 18.177L112.169 22.2291L111.003 18.3352C110.93 18.0915 110.705 17.9243 110.45 17.9243H108.49C108.252 17.9243 108.087 18.157 108.162 18.3812L110.359 24.8285L108.294 27.7443C108.132 27.974 108.295 28.2897 108.576 28.2897H110.568C110.757 28.2897 110.934 28.1976 111.041 28.0424L117.675 18.4667C117.834 18.2376 117.671 17.9243 117.392 17.9243Z" fill="#253B80"/>
<path d="M123.995 14.0903H119.85C119.567 14.0903 119.325 14.2964 119.281 14.5764L117.605 25.2049C117.572 25.4146 117.734 25.6037 117.945 25.6037H120.073C120.27 25.6037 120.439 25.4594 120.47 25.2631L120.946 22.2503C120.99 21.9697 121.232 21.7637 121.515 21.7637H122.826C125.557 21.7637 127.132 20.4425 127.544 17.8243C127.73 16.6788 127.552 15.7788 127.015 15.1485C126.427 14.4564 125.382 14.0903 123.995 14.0903ZM124.473 17.9722C124.247 19.4594 123.111 19.4594 122.012 19.4594H121.387L121.826 16.6818C121.852 16.514 121.996 16.3903 122.167 16.3903H122.453C123.201 16.3903 123.908 16.3903 124.273 16.817C124.49 17.0715 124.556 17.4497 124.473 17.9722Z" fill="#179BD7"/>
<path d="M136.384 17.9242H134.401C134.23 17.9242 134.085 18.0479 134.06 18.2157L133.972 18.7709L133.833 18.5697C133.403 17.946 132.445 17.7375 131.489 17.7375C129.296 17.7375 127.423 19.3988 127.058 21.7291C126.869 22.8915 127.138 24.003 127.797 24.7782C128.403 25.4909 129.267 25.7879 130.297 25.7879C132.064 25.7879 133.044 24.6515 133.044 24.6515L132.956 25.203C132.922 25.4139 133.085 25.603 133.298 25.603H135.085C135.368 25.603 135.609 25.3969 135.653 25.1163L136.727 18.323C136.759 18.1139 136.597 17.9242 136.384 17.9242ZM133.618 21.7872C133.427 22.9212 132.526 23.6824 131.378 23.6824C130.803 23.6824 130.341 23.4975 130.045 23.1472C129.752 22.7994 129.642 22.3042 129.734 21.7527C129.914 20.6285 130.828 19.8424 131.958 19.8424C132.522 19.8424 132.98 20.0297 133.282 20.383C133.585 20.74 133.705 21.2382 133.618 21.7872Z" fill="#179BD7"/>
<path d="M138.724 14.3818L137.023 25.2049C136.99 25.4146 137.152 25.6037 137.364 25.6037H139.074C139.358 25.6037 139.599 25.3976 139.643 25.117L141.321 14.4891C141.354 14.2794 141.192 14.0897 140.98 14.0897H139.065C138.896 14.0903 138.75 14.214 138.724 14.3818Z" fill="#179BD7"/>
<path d="M70.8279 27.6691L71.1448 25.6558L70.4388 25.6394H67.0673L69.4103 10.783C69.4176 10.7382 69.4412 10.6964 69.4757 10.6667C69.5103 10.637 69.5545 10.6206 69.6006 10.6206H75.2854C77.1727 10.6206 78.4751 11.0133 79.1551 11.7885C79.4739 12.1521 79.677 12.5321 79.7751 12.9503C79.8782 13.3891 79.88 13.9133 79.7794 14.5527L79.7721 14.5994V15.0091L80.0909 15.1897C80.3594 15.3321 80.5727 15.4952 80.7364 15.6818C81.0091 15.9927 81.1854 16.3879 81.26 16.8564C81.337 17.3382 81.3115 17.9115 81.1854 18.5606C81.04 19.3073 80.8048 19.9576 80.4873 20.4897C80.1951 20.98 79.823 21.3867 79.3812 21.7018C78.9594 22.0012 78.4582 22.2285 77.8915 22.3739C77.3424 22.517 76.7164 22.5891 76.0297 22.5891H75.5873C75.2709 22.5891 74.9636 22.703 74.7224 22.9073C74.4806 23.1158 74.3206 23.4006 74.2715 23.7121L74.2382 23.8933L73.6782 27.4418L73.6527 27.5721C73.646 27.6133 73.6345 27.6339 73.6176 27.6479C73.6024 27.6606 73.5806 27.6691 73.5594 27.6691H70.8279Z" fill="#253B80"/>
<path d="M80.3927 14.6467C80.3758 14.7552 80.3564 14.8661 80.3345 14.98C79.5848 18.8291 77.02 20.1588 73.7442 20.1588H72.0764C71.6758 20.1588 71.3382 20.4497 71.2758 20.8448L70.4218 26.2606L70.18 27.7958C70.1394 28.0552 70.3394 28.2891 70.6012 28.2891H73.5594C73.9097 28.2891 74.2073 28.0345 74.2624 27.6891L74.2915 27.5388L74.8485 24.0042L74.8842 23.8103C74.9388 23.4636 75.237 23.2091 75.5873 23.2091H76.0297C78.8958 23.2091 81.1394 22.0455 81.7951 18.6782C82.0691 17.2715 81.9273 16.097 81.2024 15.2709C80.983 15.0218 80.7109 14.8152 80.3927 14.6467Z" fill="#179BD7"/>
<path d="M79.6085 14.3339C79.4939 14.3006 79.3758 14.2703 79.2545 14.243C79.1327 14.2163 79.0079 14.1927 78.8794 14.1721C78.4297 14.0994 77.937 14.0648 77.4091 14.0648H72.9533C72.8436 14.0648 72.7394 14.0897 72.6461 14.1345C72.4406 14.2333 72.2879 14.4278 72.2509 14.666L71.303 20.6697L71.2758 20.8448C71.3382 20.4497 71.6758 20.1588 72.0764 20.1588H73.7442C77.02 20.1588 79.5848 18.8285 80.3345 14.98C80.357 14.866 80.3758 14.7551 80.3927 14.6466C80.203 14.546 79.9976 14.46 79.7764 14.3866C79.7218 14.3685 79.6655 14.3509 79.6085 14.3339Z" fill="#222D65"/>
<path d="M72.2509 14.6661C72.2879 14.4279 72.4406 14.2333 72.6461 14.1352C72.74 14.0903 72.8436 14.0655 72.9533 14.0655H77.4091C77.937 14.0655 78.4297 14.1 78.8794 14.1727C79.0079 14.1933 79.1327 14.217 79.2546 14.2436C79.3758 14.2709 79.4939 14.3012 79.6085 14.3345C79.6655 14.3515 79.7218 14.3691 79.777 14.3867C79.9982 14.46 80.2036 14.5467 80.3933 14.6467C80.6164 13.2242 80.3915 12.2558 79.6224 11.3788C78.7746 10.4133 77.2442 10 75.2861 10H69.6012C69.2012 10 68.86 10.2909 68.7982 10.6867L66.4303 25.6958C66.3836 25.9927 66.6127 26.2606 66.9121 26.2606H70.4218L71.303 20.6697L72.2509 14.6661Z" fill="#253B80"/>
</g>
</g>
<defs>
<clipPath id="clip0_43_1138">
<rect width="79" height="20" fill="white" transform="translate(64.5 10)"/>
</clipPath>
<clipPath id="clip1_43_1138">
<rect width="75.1515" height="20" fill="white" transform="translate(66.4243 10)"/>
</clipPath>
</defs>
</svg>
