<svg width="103" height="16" viewBox="0 0 103 16" fill="none" xmlns="http://www.w3.org/2000/svg">
<rect x="0.5" y="0.5" width="14" height="14" stroke="#5DAC63"/>
<path d="M23.471 12L19.922 2.796H21.365L24.069 10.284H24.095L26.903 2.796H28.268L24.641 12H23.471ZM34.1855 9.348H29.2455C29.2455 10.427 30.2465 11.142 31.3255 11.142C32.0405 11.142 32.5605 10.778 33.0155 10.219L33.8995 10.895C33.2495 11.74 32.3525 12.156 31.1695 12.156C29.2195 12.156 27.9975 10.752 27.9975 8.919C27.9975 7.073 29.3365 5.682 31.1825 5.682C33.3535 5.682 34.1855 7.346 34.1855 8.932V9.348ZM29.2455 8.412H32.9375C32.9115 7.385 32.3395 6.618 31.1565 6.618C29.9995 6.618 29.2455 7.593 29.2455 8.412ZM35.5852 12V5.838H36.7552V6.787H36.7812C37.0802 6.137 37.8602 5.682 38.6272 5.682C38.8092 5.682 38.9912 5.708 39.1472 5.76L39.0952 7.021C38.9002 6.969 38.7052 6.93 38.5232 6.93C37.3792 6.93 36.7552 7.554 36.7552 8.906V12H35.5852ZM40.4877 12V5.838H41.6577V12H40.4877ZM40.2147 3.628C40.2147 3.16 40.6047 2.77 41.0727 2.77C41.5407 2.77 41.9307 3.16 41.9307 3.628C41.9307 4.096 41.5407 4.486 41.0727 4.486C40.6047 4.486 40.2147 4.096 40.2147 3.628ZM47.7057 12V5.838H48.8757V12H47.7057ZM47.4457 3.641C47.4457 3.173 47.8357 2.783 48.3037 2.783C48.7717 2.783 49.1617 3.173 49.1617 3.641C49.1617 4.109 48.7717 4.499 48.3037 4.499C47.8357 4.499 47.4457 4.109 47.4457 3.641ZM43.9747 12V6.852H42.6487V5.838H43.9747V4.46C43.9747 2.822 44.5467 2.016 46.0807 2.016C46.3407 2.016 46.6267 2.029 46.9517 2.107L46.8217 3.147C46.6007 3.056 46.3927 3.03 46.1587 3.03C45.3007 3.03 45.1577 3.563 45.1577 4.421V5.838H46.5487V6.852H45.1447V12H43.9747ZM56.5674 9.348H51.6274C51.6274 10.427 52.6284 11.142 53.7074 11.142C54.4224 11.142 54.9424 10.778 55.3974 10.219L56.2814 10.895C55.6314 11.74 54.7344 12.156 53.5514 12.156C51.6014 12.156 50.3794 10.752 50.3794 8.919C50.3794 7.073 51.7184 5.682 53.5644 5.682C55.7354 5.682 56.5674 7.346 56.5674 8.932V9.348ZM51.6274 8.412H55.3194C55.2934 7.385 54.7214 6.618 53.5384 6.618C52.3814 6.618 51.6274 7.593 51.6274 8.412ZM64.142 2.172V12H62.972V11.116H62.946C62.491 11.779 61.633 12.156 60.801 12.156C58.89 12.156 57.668 10.739 57.668 8.919C57.668 7.073 58.903 5.682 60.801 5.682C61.685 5.682 62.53 6.085 62.946 6.722H62.972V2.172H64.142ZM60.944 11.064C62.192 11.064 62.972 10.167 62.972 8.919C62.972 7.671 62.192 6.774 60.944 6.774C59.696 6.774 58.916 7.671 58.916 8.919C58.916 10.167 59.696 11.064 60.944 11.064ZM69.8314 12V2.796H73.0294C74.6284 2.796 75.8244 3.537 75.8244 5.097C75.8244 6.15 75.1744 6.813 74.2384 7.125V7.151C75.3434 7.229 76.2274 8.204 76.2274 9.439C76.2274 11.09 74.7844 12 72.9904 12H69.8314ZM71.0794 3.888V6.618H72.7824C73.7314 6.618 74.4984 6.241 74.4984 5.24C74.4984 4.512 74.0434 3.888 73.0424 3.888H71.0794ZM71.0794 7.71V10.908H72.9124C73.6664 10.908 74.9014 10.648 74.9014 9.348C74.9014 8.256 74.1344 7.71 72.9254 7.71H71.0794ZM83.1809 5.838V12H82.0109V11.051H81.9849C81.6859 11.701 80.9059 12.156 79.9569 12.156C78.7609 12.156 77.7209 11.441 77.7209 9.803V5.838H78.8909V9.478C78.8909 10.635 79.5539 11.064 80.2949 11.064C81.2699 11.064 82.0109 10.44 82.0109 9.01V5.838H83.1809ZM86.7645 12.039L84.2035 5.838H85.5555L87.3885 10.648H87.4145L89.1565 5.838H90.4175L87.4925 13.326C87.0765 14.392 86.6735 15.12 85.3865 15.12C85.0355 15.12 84.6715 15.081 84.3465 14.951L84.4895 13.885C84.7105 13.976 84.9575 14.028 85.1915 14.028C85.9325 14.028 86.1535 13.625 86.3875 13.014L86.7645 12.039ZM97.2685 9.348H92.3285C92.3285 10.427 93.3295 11.142 94.4085 11.142C95.1235 11.142 95.6435 10.778 96.0985 10.219L96.9825 10.895C96.3325 11.74 95.4355 12.156 94.2525 12.156C92.3025 12.156 91.0805 10.752 91.0805 8.919C91.0805 7.073 92.4195 5.682 94.2655 5.682C96.4365 5.682 97.2685 7.346 97.2685 8.932V9.348ZM92.3285 8.412H96.0205C95.9945 7.385 95.4225 6.618 94.2395 6.618C93.0825 6.618 92.3285 7.593 92.3285 8.412ZM98.6682 12V5.838H99.8382V6.787H99.8642C100.163 6.137 100.943 5.682 101.71 5.682C101.892 5.682 102.074 5.708 102.23 5.76L102.178 7.021C101.983 6.969 101.788 6.93 101.606 6.93C100.462 6.93 99.8382 7.554 99.8382 8.906V12H98.6682Z" fill="#5DAC63"/>
<mask id="path-3-inside-1_0_1" fill="white">
<path d="M9.27002 1L12.8056 4.53554L5.73449 11.6066L2.19895 8.07107L9.27002 1Z"/>
</mask>
<path d="M5.73449 11.6066L5.02738 12.3137L5.73449 13.0208L6.44159 12.3137L5.73449 11.6066ZM12.0985 3.82843L5.02738 10.8995L6.44159 12.3137L13.5127 5.24265L12.0985 3.82843ZM6.44159 10.8995L2.90605 7.36397L1.49184 8.77818L5.02738 12.3137L6.44159 10.8995Z" fill="#5DAC63" mask="url(#path-3-inside-1_0_1)"/>
</svg>
